{
    "asset" : {
        "generator" : "Khronos glTF Blender I/O v1.7.33",
        "version" : "2.0"
    },
    "scene" : 0,
    "scenes" : [
        {
            "name" : "Scene",
            "nodes" : [
                0
            ]
        }
    ],
    "nodes" : [
        {
            "mesh" : 0,
            "name" : "Plane",
            "scale" : [
                0.12985409796237946,
                0.12985409796237946,
                0.12985409796237946
            ]
        }
    ],
    "meshes" : [
        {
            "name" : "Plane",
            "primitives" : [
                {
                    "attributes" : {
                        "POSITION" : 0,
                        "NORMAL" : 1,
                        "TEXCOORD_0" : 2
                    },
                    "indices" : 3
                }
            ]
        }
    ],
    "accessors" : [
        {
            "bufferView" : 0,
            "componentType" : 5126,
            "count" : 1110,
            "max" : [
                1.1113351583480835,
                9.378752708435059,
                0.06759294867515564
            ],
            "min" : [
                -1.1113351583480835,
                -1.393805980682373,
                -0.06759294867515564
            ],
            "type" : "VEC3"
        },
        {
            "bufferView" : 1,
            "componentType" : 5126,
            "count" : 1110,
            "type" : "VEC3"
        },
        {
            "bufferView" : 2,
            "componentType" : 5126,
            "count" : 1110,
            "type" : "VEC2"
        },
        {
            "bufferView" : 3,
            "componentType" : 5123,
            "count" : 1788,
            "type" : "SCALAR"
        }
    ],
    "bufferViews" : [
        {
            "buffer" : 0,
            "byteLength" : 13320,
            "byteOffset" : 0
        },
        {
            "buffer" : 0,
            "byteLength" : 13320,
            "byteOffset" : 13320
        },
        {
            "buffer" : 0,
            "byteLength" : 8880,
            "byteOffset" : 26640
        },
        {
            "buffer" : 0,
            "byteLength" : 3576,
            "byteOffset" : 35520
        }
    ],
    "buffers" : [
        {
            "byteLength" : 39096,
            "uri" : "Sword-a01ae84ab33f8506f869b2e307dd64d9.bin"
        }
    ]
}
